<svg width="68" height="59" viewBox="0 0 68 59" fill="none" xmlns="http://www.w3.org/2000/svg">
  <path d="M13 11.275C13 5.04799 16.8831 0 21.6731 0H45.3269C50.1169 0 54 5.04799 54 11.275V29.725C54 35.952 50.1169 41 45.3269 41H21.6731C16.8831 41 13 35.952 13 29.725V11.275Z" fill="url(#paint0_linear_398_581)" />
  <g filter="url(#filter0_bi_398_581)">
    <path d="M6 15.284C6 10.1566 10.6554 6 16.3981 6H51.6019C57.3446 6 62 10.1566 62 15.284V46.716C62 51.8434 57.3446 56 51.6019 56H16.3981C10.6554 56 6 51.8434 6 46.716V15.284Z" fill="url(#paint1_linear_398_581)" />
    <path d="M16.3981 6.5H51.6019C57.1232 6.5 61.5 10.4845 61.5 15.284V46.716C61.5 51.5155 57.1232 55.5 51.6019 55.5H16.3981C10.8768 55.5 6.5 51.5155 6.5 46.716V15.284C6.5 10.4845 10.8768 6.5 16.3981 6.5Z" stroke="url(#paint2_linear_398_581)" />
  </g>
  <path d="M7.4525 51C9.91333 46.0929 16.5433 38.1678 34.4056 31.0832C52.199 24.0261 58.6577 15.968 61 10.932C59.1664 7.992 55.6237 6 51.5541 6H16.7762C10.8283 6 6.0058 10.2552 6 15.5063L6 46.2318C6.00124 47.9695 6.52999 49.5983 7.4525 51Z" fill="white" fill-opacity="0.1" />
  <g filter="url(#filter1_d_398_581)">
    <path d="M17.8185 3.35634C17.8185 2.05497 18.9631 1 20.375 1C21.787 1 22.9316 2.05497 22.9316 3.35634V5.76304H44.8601V3.35634C44.8601 2.05497 46.0047 1 47.4167 1C48.8286 1 49.9732 2.05497 49.9732 3.35634V5.76304H53.0632C57.9989 5.76304 62 9.45085 62 14H6C6 9.45085 10.0011 5.76304 14.9368 5.76304H17.8185V3.35634Z" fill="url(#paint3_linear_398_581)" />
  </g>
  <g filter="url(#filter2_d_398_581)">
    <path d="M36.6524 22.9997C36.6524 24.6563 35.3543 25.9993 33.7529 25.9993C32.1515 25.9993 30.8534 24.6563 30.8534 22.9997C30.8534 21.343 32.1515 20 33.7529 20C35.3543 20 36.6524 21.343 36.6524 22.9997Z" fill="url(#paint4_linear_398_581)" />
    <path d="M24.799 22.9997C24.799 24.6564 23.5009 25.9994 21.8995 25.9994C20.2982 25.9994 19 24.6564 19 22.9997C19 21.343 20.2982 20 21.8995 20C23.5009 20 24.799 21.343 24.799 22.9997Z" fill="url(#paint5_linear_398_581)" />
    <path d="M24.799 33.5C24.799 35.1567 23.5009 36.4997 21.8995 36.4997C20.2982 36.4997 19 35.1567 19 33.5C19 31.8433 20.2982 30.5003 21.8995 30.5003C23.5009 30.5003 24.799 31.8433 24.799 33.5Z" fill="url(#paint6_linear_398_581)" />
    <path d="M21.8995 47C23.5009 47 24.799 45.657 24.799 44.0003C24.799 42.3437 23.5009 41.0007 21.8995 41.0007C20.2982 41.0007 19 42.3437 19 44.0003C19 45.657 20.2982 47 21.8995 47Z" fill="url(#paint7_linear_398_581)" />
    <path d="M33.7529 36.4997C35.3543 36.4997 36.6524 35.1567 36.6524 33.5C36.6524 31.8433 35.3543 30.5003 33.7529 30.5003C32.1515 30.5003 30.8534 31.8433 30.8534 33.5C30.8534 35.1567 32.1515 36.4997 33.7529 36.4997Z" fill="url(#paint8_linear_398_581)" />
    <path d="M36.6524 44.0003C36.6524 45.657 35.3543 47 33.7529 47C32.1515 47 30.8534 45.657 30.8534 44.0003C30.8534 42.3437 32.1515 41.0007 33.7529 41.0007C35.3543 41.0007 36.6524 42.3437 36.6524 44.0003Z" fill="url(#paint9_linear_398_581)" />
    <path d="M46.1005 47C47.7018 47 49 45.657 49 44.0003C49 42.3437 47.7018 41.0007 46.1005 41.0007C44.4991 41.0007 43.201 42.3437 43.201 44.0003C43.201 45.657 44.4991 47 46.1005 47Z" fill="url(#paint10_linear_398_581)" />
    <path d="M49 22.9997C49 24.6563 47.7018 25.9993 46.1005 25.9993C44.4991 25.9993 43.201 24.6563 43.201 22.9997C43.201 21.343 44.4991 20 46.1005 20C47.7018 20 49 21.343 49 22.9997Z" fill="url(#paint11_linear_398_581)" />
    <path d="M46.1005 36.4997C47.7018 36.4997 49 35.1567 49 33.5C49 31.8433 47.7018 30.5003 46.1005 30.5003C44.4991 30.5003 43.201 31.8433 43.201 33.5C43.201 35.1567 44.4991 36.4997 46.1005 36.4997Z" fill="url(#paint12_linear_398_581)" />
  </g>
  <defs>
    <filter id="filter0_bi_398_581" x="-8" y="-8" width="84" height="78" filterUnits="userSpaceOnUse" color-interpolation-filters="sRGB">
      <feFlood flood-opacity="0" result="BackgroundImageFix" />
      <feGaussianBlur in="BackgroundImageFix" stdDeviation="7" />
      <feComposite in2="SourceAlpha" operator="in" result="effect1_backgroundBlur_398_581" />
      <feBlend mode="normal" in="SourceGraphic" in2="effect1_backgroundBlur_398_581" result="shape" />
      <feColorMatrix in="SourceAlpha" type="matrix" values="0 0 0 0 0 0 0 0 0 0 0 0 0 0 0 0 0 0 127 0" result="hardAlpha" />
      <feOffset />
      <feGaussianBlur stdDeviation="2" />
      <feComposite in2="hardAlpha" operator="arithmetic" k2="-1" k3="1" />
      <feColorMatrix type="matrix" values="0 0 0 0 1 0 0 0 0 1 0 0 0 0 1 0 0 0 0.63 0" />
      <feBlend mode="normal" in2="shape" result="effect2_innerShadow_398_581" />
    </filter>
    <filter id="filter1_d_398_581" x="0" y="1" width="68" height="25" filterUnits="userSpaceOnUse" color-interpolation-filters="sRGB">
      <feFlood flood-opacity="0" result="BackgroundImageFix" />
      <feColorMatrix in="SourceAlpha" type="matrix" values="0 0 0 0 0 0 0 0 0 0 0 0 0 0 0 0 0 0 127 0" result="hardAlpha" />
      <feOffset dy="6" />
      <feGaussianBlur stdDeviation="3" />
      <feComposite in2="hardAlpha" operator="out" />
      <feColorMatrix type="matrix" values="0 0 0 0 0.0117647 0 0 0 0 0.270588 0 0 0 0 0.952941 0 0 0 0.27 0" />
      <feBlend mode="normal" in2="BackgroundImageFix" result="effect1_dropShadow_398_581" />
      <feBlend mode="normal" in="SourceGraphic" in2="effect1_dropShadow_398_581" result="shape" />
    </filter>
    <filter id="filter2_d_398_581" x="13" y="20" width="42" height="39" filterUnits="userSpaceOnUse" color-interpolation-filters="sRGB">
      <feFlood flood-opacity="0" result="BackgroundImageFix" />
      <feColorMatrix in="SourceAlpha" type="matrix" values="0 0 0 0 0 0 0 0 0 0 0 0 0 0 0 0 0 0 127 0" result="hardAlpha" />
      <feOffset dy="6" />
      <feGaussianBlur stdDeviation="3" />
      <feComposite in2="hardAlpha" operator="out" />
      <feColorMatrix type="matrix" values="0 0 0 0 0.0117647 0 0 0 0 0.270588 0 0 0 0 0.952941 0 0 0 0.27 0" />
      <feBlend mode="normal" in2="BackgroundImageFix" result="effect1_dropShadow_398_581" />
      <feBlend mode="normal" in="SourceGraphic" in2="effect1_dropShadow_398_581" result="shape" />
    </filter>
    <linearGradient id="paint0_linear_398_581" x1="33.5" y1="0" x2="33.5" y2="41" gradientUnits="userSpaceOnUse">
      <stop stop-color="#2522D0" />
      <stop offset="1" stop-color="#2253D0" />
    </linearGradient>
    <linearGradient id="paint1_linear_398_581" x1="34" y1="6" x2="34" y2="57.1541" gradientUnits="userSpaceOnUse">
      <stop stop-color="#4B6DE4" stop-opacity="0.42" />
      <stop offset="1" stop-color="#2253D0" stop-opacity="0.49" />
    </linearGradient>
    <linearGradient id="paint2_linear_398_581" x1="17.5183" y1="15.138" x2="42.4959" y2="63.4443" gradientUnits="userSpaceOnUse">
      <stop offset="0.331091" stop-color="white" stop-opacity="0.26" />
      <stop offset="1" stop-color="#4B6DE4" stop-opacity="0.16" />
    </linearGradient>
    <linearGradient id="paint3_linear_398_581" x1="4.55641" y1="10.4071" x2="64.099" y2="9.10547" gradientUnits="userSpaceOnUse">
      <stop stop-color="#FEFCFF" />
      <stop offset="1" stop-color="#C7CFFC" />
    </linearGradient>
    <linearGradient id="paint4_linear_398_581" x1="18.2267" y1="39.5379" x2="50.1387" y2="39.3579" gradientUnits="userSpaceOnUse">
      <stop stop-color="#FEFCFF" />
      <stop offset="1" stop-color="#C7CFFC" />
    </linearGradient>
    <linearGradient id="paint5_linear_398_581" x1="18.2267" y1="39.5379" x2="50.1387" y2="39.3579" gradientUnits="userSpaceOnUse">
      <stop stop-color="#FEFCFF" />
      <stop offset="1" stop-color="#C7CFFC" />
    </linearGradient>
    <linearGradient id="paint6_linear_398_581" x1="18.2267" y1="39.5379" x2="50.1387" y2="39.3579" gradientUnits="userSpaceOnUse">
      <stop stop-color="#FEFCFF" />
      <stop offset="1" stop-color="#C7CFFC" />
    </linearGradient>
    <linearGradient id="paint7_linear_398_581" x1="18.2267" y1="39.5379" x2="50.1387" y2="39.3579" gradientUnits="userSpaceOnUse">
      <stop stop-color="#FEFCFF" />
      <stop offset="1" stop-color="#C7CFFC" />
    </linearGradient>
    <linearGradient id="paint8_linear_398_581" x1="18.2267" y1="39.5379" x2="50.1387" y2="39.3579" gradientUnits="userSpaceOnUse">
      <stop stop-color="#FEFCFF" />
      <stop offset="1" stop-color="#C7CFFC" />
    </linearGradient>
    <linearGradient id="paint9_linear_398_581" x1="18.2267" y1="39.5379" x2="50.1387" y2="39.3579" gradientUnits="userSpaceOnUse">
      <stop stop-color="#FEFCFF" />
      <stop offset="1" stop-color="#C7CFFC" />
    </linearGradient>
    <linearGradient id="paint10_linear_398_581" x1="18.2267" y1="39.5379" x2="50.1387" y2="39.3579" gradientUnits="userSpaceOnUse">
      <stop stop-color="#FEFCFF" />
      <stop offset="1" stop-color="#C7CFFC" />
    </linearGradient>
    <linearGradient id="paint11_linear_398_581" x1="18.2267" y1="39.5379" x2="50.1387" y2="39.3579" gradientUnits="userSpaceOnUse">
      <stop stop-color="#FEFCFF" />
      <stop offset="1" stop-color="#C7CFFC" />
    </linearGradient>
    <linearGradient id="paint12_linear_398_581" x1="18.2267" y1="39.5379" x2="50.1387" y2="39.3579" gradientUnits="userSpaceOnUse">
      <stop stop-color="#FEFCFF" />
      <stop offset="1" stop-color="#C7CFFC" />
    </linearGradient>
  </defs>
</svg>