<svg width="66" height="56" viewBox="0 0 66 56" fill="none" xmlns="http://www.w3.org/2000/svg">
  <circle cx="24.5" cy="28" r="24" fill="url(#paint0_linear_398_600)" />
  <g filter="url(#filter0_bi_398_600)">
    <path d="M37.5 0C31.9621 0 26.5486 1.64217 21.944 4.71885C17.3395 7.79553 13.7506 12.1685 11.6314 17.2849C9.51213 22.4012 8.95764 28.0311 10.038 33.4625C11.1184 38.894 13.7852 43.8831 17.701 47.799C21.6169 51.7149 26.606 54.3816 32.0375 55.462C37.4689 56.5424 43.0988 55.9879 48.2151 53.8686C53.3315 51.7494 57.7045 48.1605 60.7811 43.556C63.8578 38.9514 65.5 33.5379 65.5 28C65.4922 20.5763 62.5397 13.459 57.2903 8.20967C52.041 2.96035 44.9237 0.00783951 37.5 0Z" fill="url(#paint1_linear_398_600)" />
    <path d="M22.2218 5.13458C26.7441 2.1129 32.0608 0.500054 37.4997 0.5C44.7909 0.507766 51.7812 3.4076 56.9368 8.56322C62.0925 13.7189 64.9923 20.7093 65 28.0005C64.9999 33.4393 63.3871 38.756 60.3654 43.2782C57.3437 47.8005 53.0488 51.3253 48.0238 53.4067C42.9988 55.4881 37.4695 56.0327 32.135 54.9716C26.8005 53.9105 21.9005 51.2914 18.0546 47.4454C14.2086 43.5995 11.5895 38.6995 10.5284 33.365C9.46732 28.0305 10.0119 22.5012 12.0933 17.4762C14.1747 12.4512 17.6995 8.15632 22.2218 5.13458Z" stroke="url(#paint2_linear_398_600)" />
  </g>
  <path d="M9.5 27.3666C9.50488 12.2516 21.9287 0 37.2535 0C46.3584 0 54.4392 4.32461 59.5 11.005C55.7957 15.9224 49.1066 21.8044 37.0297 27.1549C25.0502 32.4622 18.2836 38.2053 14.4615 43C11.3354 38.5716 9.50187 33.1891 9.5 27.3844C9.5 27.3814 9.5 27.3784 9.5 27.3755C9.5 27.3725 9.5 27.3695 9.5 27.3666Z" fill="white" fill-opacity="0.1" />
  <g filter="url(#filter1_d_398_600)">
    <path fill-rule="evenodd" clip-rule="evenodd" d="M47.3144 19.344C48.4834 20.0168 48.8502 21.4522 48.1337 22.5499L39.4295 35.8866C38.7201 36.9735 37.2127 37.3238 36.0454 36.6729L28.7155 32.5859C27.5366 31.9286 27.1483 30.4982 27.8483 29.3911C28.5483 28.2839 30.0715 27.9193 31.2504 28.5767L36.4754 31.4901L43.9005 20.1134C44.6169 19.0156 46.1454 18.6711 47.3144 19.344Z" fill="url(#paint3_linear_398_600)" />
  </g>
  <defs>
    <filter id="filter0_bi_398_600" x="-4.5" y="-14" width="84" height="84" filterUnits="userSpaceOnUse" color-interpolation-filters="sRGB">
      <feFlood flood-opacity="0" result="BackgroundImageFix" />
      <feGaussianBlur in="BackgroundImageFix" stdDeviation="7" />
      <feComposite in2="SourceAlpha" operator="in" result="effect1_backgroundBlur_398_600" />
      <feBlend mode="normal" in="SourceGraphic" in2="effect1_backgroundBlur_398_600" result="shape" />
      <feColorMatrix in="SourceAlpha" type="matrix" values="0 0 0 0 0 0 0 0 0 0 0 0 0 0 0 0 0 0 127 0" result="hardAlpha" />
      <feOffset />
      <feGaussianBlur stdDeviation="2" />
      <feComposite in2="hardAlpha" operator="arithmetic" k2="-1" k3="1" />
      <feColorMatrix type="matrix" values="0 0 0 0 1 0 0 0 0 1 0 0 0 0 1 0 0 0 0.63 0" />
      <feBlend mode="normal" in2="shape" result="effect2_innerShadow_398_600" />
    </filter>
    <filter id="filter1_d_398_600" x="21.5" y="19" width="33" height="30" filterUnits="userSpaceOnUse" color-interpolation-filters="sRGB">
      <feFlood flood-opacity="0" result="BackgroundImageFix" />
      <feColorMatrix in="SourceAlpha" type="matrix" values="0 0 0 0 0 0 0 0 0 0 0 0 0 0 0 0 0 0 127 0" result="hardAlpha" />
      <feOffset dy="6" />
      <feGaussianBlur stdDeviation="3" />
      <feComposite in2="hardAlpha" operator="out" />
      <feColorMatrix type="matrix" values="0 0 0 0 0.0117647 0 0 0 0 0.270588 0 0 0 0 0.952941 0 0 0 0.27 0" />
      <feBlend mode="normal" in2="BackgroundImageFix" result="effect1_dropShadow_398_600" />
      <feBlend mode="normal" in="SourceGraphic" in2="effect1_dropShadow_398_600" result="shape" />
    </filter>
    <linearGradient id="paint0_linear_398_600" x1="24.5" y1="4" x2="24.5" y2="52" gradientUnits="userSpaceOnUse">
      <stop stop-color="#2522D0" />
      <stop offset="1" stop-color="#2253D0" />
    </linearGradient>
    <linearGradient id="paint1_linear_398_600" x1="37.5" y1="-5.75363e-07" x2="37.5" y2="57.2926" gradientUnits="userSpaceOnUse">
      <stop stop-color="#4B6DE4" stop-opacity="0.42" />
      <stop offset="1" stop-color="#2253D0" stop-opacity="0.49" />
    </linearGradient>
    <linearGradient id="paint2_linear_398_600" x1="21.0183" y1="10.2345" x2="50.7543" y2="61.582" gradientUnits="userSpaceOnUse">
      <stop offset="0.331091" stop-color="white" stop-opacity="0.26" />
      <stop offset="1" stop-color="#4B6DE4" stop-opacity="0.16" />
    </linearGradient>
    <linearGradient id="paint3_linear_398_600" x1="26.9587" y1="32.0252" x2="49.297" y2="31.893" gradientUnits="userSpaceOnUse">
      <stop stop-color="#FEFCFF" />
      <stop offset="1" stop-color="#C7CFFC" />
    </linearGradient>
  </defs>
</svg>