<svg width="165" height="30" viewBox="0 0 165 30" fill="none" xmlns="http://www.w3.org/2000/svg">
  <path
    d="M14.3248 28.9439L6.53419 0H0L7.61855 28.9999H14.3095H14.34H20.8437L28.6495 0H22.1153L14.3248 28.9439Z"
    fill="#122045" />
  <path
    d="M28.7144 22.7664C28.7144 17.9817 32.6364 16.5584 37.0044 16.1685C40.8411 15.8054 42.3498 15.6244 42.3498 14.2432V14.1591C42.3498 12.4019 41.1571 11.3838 39.0737 11.3838C36.8757 11.3838 35.5684 12.43 35.1517 13.8533L29.4904 13.4073C30.3377 9.5018 33.815 7.04639 39.1031 7.04639C44.0164 7.04639 48.4711 9.19472 48.4711 14.3005V28.7514H42.6658V25.7799H42.4937C41.4158 27.7741 39.3044 29.1553 36.0424 29.1553C31.8324 29.1553 28.7144 27.007 28.7144 22.7664ZM42.3931 21.0934V18.8202C41.6604 19.2942 39.4764 19.6013 38.1397 19.7822C35.985 20.0753 34.5617 20.8984 34.5617 22.5715C34.5617 24.2037 35.9124 25.0549 37.7944 25.0549C40.4818 25.0549 42.3931 23.3385 42.3931 21.0934Z"
    fill="#122045" />
  <path
    d="M65.5801 13.769C65.2781 12.3877 64.014 11.2588 61.8874 11.2588C59.9913 11.2588 58.4967 12.0959 58.5107 13.3791C58.4967 14.4112 59.2574 15.0942 61.3127 15.5274L65.3074 16.3085C69.5888 17.1597 71.6721 19.0149 71.6874 22.1113C71.6734 26.3379 67.578 29.1692 61.8593 29.1692C56.012 29.1692 52.4187 26.6449 51.844 22.5432L57.8647 22.2361C58.238 23.9793 59.6894 24.8865 61.8734 24.8865C64.014 24.8865 65.4361 23.9793 65.4654 22.7102C65.4373 21.636 64.5607 20.953 62.6353 20.5758L58.814 19.8368C54.5033 18.9996 52.4199 16.9214 52.434 13.7129C52.4199 9.58444 56.1407 7.04492 61.788 7.04492C67.3627 7.04492 70.6387 9.48632 71.1853 13.4338L65.5801 13.769Z"
    fill="#122045" />
  <path
    d="M86.8836 11.7888H82.731V22.1673C82.731 23.8136 83.5783 24.2596 84.8003 24.2596C85.375 24.2596 86.0223 24.1207 86.323 24.0646L87.285 28.4862C86.667 28.6811 85.547 28.9882 83.9657 29.0443C79.5263 29.2252 76.5803 27.147 76.6096 22.9484V11.7888H73.5923V7.32523H76.6096V2.19141H82.731V7.32523H86.8836V11.7888Z"
    fill="#122045" />
  <path
    d="M89.3379 18.1359C89.3379 11.524 93.5479 7.04639 100.043 7.04639C105.876 7.04639 110.417 10.6448 110.417 17.9269V19.5592H95.3866V19.5732C95.3866 22.7677 97.326 24.7351 100.387 24.7351C102.427 24.7351 104.008 23.8839 104.626 22.2516L110.287 22.6148C109.425 26.5903 105.747 29.1706 100.287 29.1706C93.4906 29.1694 89.3379 24.9288 89.3379 18.1359ZM104.654 15.8754C104.64 13.3232 102.8 11.4819 100.142 11.4819C97.4266 11.4819 95.5153 13.4353 95.3853 15.8754H104.654Z"
    fill="#122045" />
  <path
    d="M114.004 7.32515H119.938V11.0637H120.168C120.972 8.41333 122.998 7.01807 125.47 7.01807C126.088 7.01807 126.848 7.10216 127.395 7.22704V12.4997C126.82 12.3188 125.657 12.1786 124.808 12.1786C122.107 12.1786 120.124 13.9919 120.124 16.6282V28.7498H114.004V7.32515Z"
    fill="#122045" />
  <path
    d="M130.137 7.32515H136.071V11.0637H136.3C137.104 8.41333 139.13 7.01807 141.602 7.01807C142.22 7.01807 142.981 7.10216 143.528 7.22704V12.4997C142.953 12.3188 141.79 12.1786 140.941 12.1786C138.24 12.1786 136.257 13.9919 136.257 16.6282V28.7498H130.136V7.32515H130.137Z"
    fill="#122045" />
  <path
    d="M144.617 22.7664C144.617 17.9817 148.539 16.5584 152.907 16.1685C156.744 15.8054 158.253 15.6244 158.253 14.2432V14.1591C158.253 12.4019 157.06 11.3838 154.977 11.3838C152.779 11.3838 151.471 12.43 151.055 13.8533L145.393 13.4073C146.241 9.5018 149.718 7.04639 155.006 7.04639C159.919 7.04639 164.374 9.19472 164.374 14.3005V28.7514H158.569V25.7799H158.397C157.319 27.7741 155.207 29.1553 151.945 29.1553C147.735 29.1553 144.617 27.007 144.617 22.7664ZM158.296 21.0934V18.8202C157.563 19.2942 155.379 19.6013 154.043 19.7822C151.888 20.0753 150.465 20.8984 150.465 22.5715C150.465 24.2037 151.815 25.0549 153.697 25.0549C156.385 25.0549 158.296 23.3385 158.296 21.0934Z"
    fill="#122045" />
</svg>