<svg width="75" height="56" viewBox="0 0 75 56" fill="none" xmlns="http://www.w3.org/2000/svg">
  <path d="M23.0137 16.2979C23.0137 10.6105 27.4637 6 32.9531 6H60.0606C65.5499 6 70 10.6105 70 16.2979V39.7021C70 45.3895 65.5499 50 60.0606 50H32.9531C27.4637 50 23.0137 45.3895 23.0137 39.7021V16.2979Z" fill="url(#paint0_linear_398_575)" />
  <g filter="url(#filter0_bi_398_575)">
    <path d="M0 10.4407C0 4.67445 4.44468 0 9.92748 0H51.4424C56.9252 0 61.3699 4.67445 61.3699 10.4407V45.5593C61.3699 51.3256 56.9252 56 51.4424 56H9.92748C4.44468 56 0 51.3256 0 45.5593V10.4407Z" fill="url(#paint1_linear_398_575)" />
    <path d="M0.5 10.4407C0.5 4.92655 4.74427 0.5 9.92748 0.5H51.4424C56.6256 0.5 60.8699 4.92655 60.8699 10.4407V45.5593C60.8699 51.0735 56.6256 55.5 51.4424 55.5H9.92748C4.74427 55.5 0.5 51.0735 0.5 45.5593V10.4407Z" stroke="url(#paint2_linear_398_575)" />
  </g>
  <path d="M61.3699 18.396C54.6387 23.687 46.0893 29.061 35.2308 34.1921C21.5024 40.6793 11.4035 47.4901 3.97452 54C1.56123 52.0924 0 49.0536 0 45.6308V10.4571C0 4.68179 4.44468 0 9.92748 0H51.4424C56.9252 0 61.3699 4.68179 61.3699 10.4571V18.396Z" fill="white" fill-opacity="0.1" />
  <g filter="url(#filter1_d_398_575)">
    <path fill-rule="evenodd" clip-rule="evenodd" d="M42.4613 20C40.7236 20 39.3149 21.567 39.3149 23.5V32.5C39.3149 34.433 40.7236 36 42.4613 36H62.6882C65.6672 36 68.0821 33.3137 68.0821 30V26C68.0821 22.6863 65.6672 20 62.6882 20H42.4613ZM47.4057 31.5C49.1434 31.5 50.5521 29.933 50.5521 28C50.5521 26.067 49.1434 24.5 47.4057 24.5C45.668 24.5 44.2593 26.067 44.2593 28C44.2593 29.933 45.668 31.5 47.4057 31.5Z" fill="url(#paint3_linear_398_575)" />
  </g>
  <defs>
    <filter id="filter0_bi_398_575" x="-14" y="-14" width="89.3696" height="84" filterUnits="userSpaceOnUse" color-interpolation-filters="sRGB">
      <feFlood flood-opacity="0" result="BackgroundImageFix" />
      <feGaussianBlur in="BackgroundImageFix" stdDeviation="7" />
      <feComposite in2="SourceAlpha" operator="in" result="effect1_backgroundBlur_398_575" />
      <feBlend mode="normal" in="SourceGraphic" in2="effect1_backgroundBlur_398_575" result="shape" />
      <feColorMatrix in="SourceAlpha" type="matrix" values="0 0 0 0 0 0 0 0 0 0 0 0 0 0 0 0 0 0 127 0" result="hardAlpha" />
      <feOffset />
      <feGaussianBlur stdDeviation="2" />
      <feComposite in2="hardAlpha" operator="arithmetic" k2="-1" k3="1" />
      <feColorMatrix type="matrix" values="0 0 0 0 1 0 0 0 0 1 0 0 0 0 1 0 0 0 0.63 0" />
      <feBlend mode="normal" in2="shape" result="effect2_innerShadow_398_575" />
    </filter>
    <filter id="filter1_d_398_575" x="33.3149" y="20" width="40.7671" height="28" filterUnits="userSpaceOnUse" color-interpolation-filters="sRGB">
      <feFlood flood-opacity="0" result="BackgroundImageFix" />
      <feColorMatrix in="SourceAlpha" type="matrix" values="0 0 0 0 0 0 0 0 0 0 0 0 0 0 0 0 0 0 127 0" result="hardAlpha" />
      <feOffset dy="6" />
      <feGaussianBlur stdDeviation="3" />
      <feComposite in2="hardAlpha" operator="out" />
      <feColorMatrix type="matrix" values="0 0 0 0 0.0117647 0 0 0 0 0.270588 0 0 0 0 0.952941 0 0 0 0.27 0" />
      <feBlend mode="normal" in2="BackgroundImageFix" result="effect1_dropShadow_398_575" />
      <feBlend mode="normal" in="SourceGraphic" in2="effect1_dropShadow_398_575" result="shape" />
    </filter>
    <linearGradient id="paint0_linear_398_575" x1="46.5068" y1="6" x2="46.5068" y2="50" gradientUnits="userSpaceOnUse">
      <stop stop-color="#2522D0" />
      <stop offset="1" stop-color="#2253D0" />
    </linearGradient>
    <linearGradient id="paint1_linear_398_575" x1="30.6849" y1="-5.75363e-07" x2="30.6849" y2="57.2926" gradientUnits="userSpaceOnUse">
      <stop stop-color="#4B6DE4" stop-opacity="0.42" />
      <stop offset="1" stop-color="#2253D0" stop-opacity="0.49" />
    </linearGradient>
    <linearGradient id="paint2_linear_398_575" x1="12.6228" y1="10.2345" x2="40.9473" y2="63.8347" gradientUnits="userSpaceOnUse">
      <stop offset="0.331091" stop-color="white" stop-opacity="0.26" />
      <stop offset="1" stop-color="#4B6DE4" stop-opacity="0.16" />
    </linearGradient>
    <linearGradient id="paint3_linear_398_575" x1="38.5734" y1="31.578" x2="69.1724" y2="31.2988" gradientUnits="userSpaceOnUse">
      <stop stop-color="#FEFCFF" />
      <stop offset="1" stop-color="#C7CFFC" />
    </linearGradient>
  </defs>
</svg>